<?xml version="1.0" standalone="no"?>
<!DOCTYPE svg PUBLIC "-//W3C//DTD SVG 20010904//EN"
 "http://www.w3.org/TR/2001/REC-SVG-20010904/DTD/svg10.dtd">
<svg version="1.0" xmlns="http://www.w3.org/2000/svg"
 width="700.000000pt" height="700.000000pt" viewBox="0 0 700.000000 700.000000"
 preserveAspectRatio="xMidYMid meet">
<metadata>
Created by potrace 1.14, written by Peter Selinger 2001-2017
</metadata>
<g transform="translate(0.000000,700.000000) scale(0.100000,-0.100000)"
fill="#000000" stroke="none">
<path d="M3240 6989 c-1192 -90 -2244 -773 -2822 -1831 -134 -247 -265 -593
-328 -873 -179 -793 -83 -1617 274 -2335 182 -365 375 -631 675 -930 395 -394
842 -670 1361 -840 933 -308 1950 -212 2800 262 292 163 525 341 771 587 290
290 484 559 660 911 188 378 300 762 351 1205 7 61 12 220 12 355 0 249 -9
371 -45 585 -99 589 -341 1127 -728 1615 -97 123 -399 425 -521 522 -710 564
-1577 834 -2460 767z m-233 -3086 c-3 -1246 0 -1178 -68 -1353 -120 -312 -420
-490 -824 -490 -428 0 -751 199 -876 540 -32 89 -59 234 -59 323 l0 57 263 0
262 0 16 -98 c32 -199 119 -304 280 -338 122 -26 261 -3 336 56 44 34 92 109
116 180 l22 65 3 1093 3 1092 265 0 265 0 -4 -1127z m1983 1112 c300 -46 515
-184 620 -399 59 -120 74 -189 73 -336 -1 -221 -44 -332 -183 -471 -69 -69
-103 -94 -175 -131 -50 -24 -101 -48 -115 -52 -23 -7 -20 -9 25 -21 27 -8 88
-33 135 -56 67 -33 102 -60 170 -128 94 -95 139 -164 176 -269 104 -301 8
-642 -238 -841 -79 -64 -151 -102 -267 -141 -164 -55 -235 -60 -968 -60 l-663
0 0 1460 0 1460 658 0 c524 0 676 -3 752 -15z"/>
<path d="M4118 4604 c-5 -4 -8 -187 -8 -406 l0 -398 294 0 c162 0 329 5 372
11 163 22 264 86 324 204 34 67 35 70 35 189 0 110 -2 126 -26 177 -48 101
-136 169 -266 205 -46 13 -129 17 -388 21 -181 3 -333 2 -337 -3z"/>
<path d="M4110 2971 l0 -431 333 0 c182 0 360 5 395 10 242 40 372 184 372
415 0 156 -57 271 -175 350 -116 78 -122 79 -547 83 l-378 3 0 -430z"/>
</g>
</svg>
