<?xml version="1.0" encoding="utf-8"?>
<!-- Generator: Adobe Illustrator 27.4.0, SVG Export Plug-In . SVG Version: 6.00 Build 0)  -->
<svg version="1.1" id="Layer_1" xmlns="http://www.w3.org/2000/svg" xmlns:xlink="http://www.w3.org/1999/xlink" x="0px" y="0px"
	 viewBox="0 0 260 260" style="enable-background:new 0 0 260 260;" xml:space="preserve">
<style type="text/css">
	.st0{fill:#122E21;}
	.st1{fill:#00E292;}
</style>
<g>
	<circle class="st0" cx="130" cy="130" r="130"/>
</g>
<g>
	<path class="st1" d="M78.7,183.6c-10.6,0-19-3-25.4-8.9c-6.4-6-9.6-14.4-9.6-25.4h19.9c0.1,5.1,1.3,9.1,3.6,12.1
		c2.3,3,6,4.5,11,4.5c4.8,0,8.2-1.4,10.4-4.3c2.2-2.8,3.3-6.6,3.3-11.3V73h19.9v77.4c0,10.7-3,18.9-8.9,24.6
		C96.9,180.7,88.8,183.6,78.7,183.6z"/>
	<path class="st1" d="M132.9,181.7V73h43.6c11.3,0,19.9,2.6,25.9,7.8c6,5.2,8.9,11.9,8.9,20.1c0,6.8-1.8,12.3-5.5,16.4
		c-3.7,4.1-8.2,6.9-13.4,8.3c6.2,1.2,11.3,4.3,15.4,9.2c4,4.9,6.1,10.6,6.1,17.2c0,8.6-3.1,15.7-9.3,21.3c-6.2,5.6-15,8.4-26.4,8.4
		H132.9z M152.8,118.7h20.8c5.6,0,9.9-1.3,12.9-3.9c3-2.6,4.5-6.3,4.5-11c0-4.6-1.5-8.2-4.4-10.8c-3-2.6-7.4-4-13.3-4h-20.5V118.7z
		 M152.8,165.6H175c5.9,0,10.5-1.4,13.7-4.1c3.3-2.7,4.9-6.6,4.9-11.6c0-5.1-1.7-9.1-5.1-12c-3.4-2.9-8-4.3-13.8-4.3h-21.9V165.6z"
		/>
</g>
<g>
</g>
<g>
</g>
<g>
</g>
<g>
</g>
<g>
</g>
<g>
</g>
<g>
</g>
<g>
</g>
<g>
</g>
<g>
</g>
<g>
</g>
<g>
</g>
<g>
</g>
<g>
</g>
<g>
</g>
</svg>
