<?xml version="1.0" encoding="utf-8"?>
<!-- Generator: Adobe Illustrator 27.3.1, SVG Export Plug-In . SVG Version: 6.00 Build 0)  -->
<svg version="1.1" id="Layer_1" xmlns="http://www.w3.org/2000/svg" xmlns:xlink="http://www.w3.org/1999/xlink" x="0px" y="0px"
	 viewBox="0 0 512 512" style="enable-background:new 0 0 512 512;" xml:space="preserve">
<style type="text/css">
	.st0{fill:#FFFFFF;}
</style>
<path class="st0" d="M464,256c0-114.9-93.1-208-208-208S48,141.1,48,256s93.1,208,208,208S464,370.9,464,256z M0,256
	C0,114.6,114.6,0,256,0s256,114.6,256,256S397.4,512,256,512S0,397.4,0,256z M177.6,318.1c15.2,16.4,41.2,33.9,78.4,33.9
	s63.2-17.5,78.4-33.9c9-9.7,24.2-10.4,33.9-1.4s10.4,24.2,1.4,33.9c-22,23.8-60,49.4-113.6,49.4s-91.7-25.5-113.6-49.4
	c-9-9.7-8.4-24.9,1.4-33.9s24.9-8.4,33.9,1.4H177.6z M217.6,228.8L217.6,228.8L217.6,228.8l-0.2-0.2c-0.2-0.2-0.4-0.5-0.7-0.9
	c-0.6-0.8-1.6-2-2.8-3.4c-2.5-2.8-6-6.6-10.2-10.3c-8.8-7.8-18.8-14-27.7-14s-18.9,6.2-27.7,14c-4.2,3.7-7.7,7.5-10.2,10.3
	c-1.2,1.4-2.2,2.6-2.8,3.4c-0.3,0.4-0.6,0.7-0.7,0.9l-0.2,0.2l0,0l0,0l0,0c-2.1,2.8-5.7,3.9-8.9,2.8s-5.5-4.1-5.5-7.6
	c0-17.9,6.7-35.6,16.6-48.8c9.8-13,23.9-23.2,39.4-23.2s29.6,10.2,39.4,23.2c9.9,13.2,16.6,30.9,16.6,48.8c0,3.4-2.2,6.5-5.5,7.6
	S219.6,231.6,217.6,228.8L217.6,228.8L217.6,228.8L217.6,228.8z M377.6,228.8L377.6,228.8l-0.2-0.2c-0.2-0.2-0.4-0.5-0.7-0.9
	c-0.6-0.8-1.6-2-2.8-3.4c-2.5-2.8-6-6.6-10.2-10.3c-8.8-7.8-18.8-14-27.7-14s-18.9,6.2-27.7,14c-4.2,3.7-7.7,7.5-10.2,10.3
	c-1.2,1.4-2.2,2.6-2.8,3.4c-0.3,0.4-0.6,0.7-0.7,0.9l-0.2,0.2l0,0l0,0l0,0c-2.1,2.8-5.7,3.9-8.9,2.8s-5.5-4.1-5.5-7.6
	c0-17.9,6.7-35.6,16.6-48.8c9.8-13,23.9-23.2,39.4-23.2s29.6,10.2,39.4,23.2c9.9,13.2,16.6,30.9,16.6,48.8c0,3.4-2.2,6.5-5.5,7.6
	S379.6,231.6,377.6,228.8L377.6,228.8L377.6,228.8L377.6,228.8L377.6,228.8z"/>
</svg>
